<?xml version="1.0" encoding="us-ascii" standalone="no"?><svg xmlns="http://www.w3.org/2000/svg" xmlns:xlink="http://www.w3.org/1999/xlink" contentStyleType="text/css" height="625px" preserveAspectRatio="none" style="width:1200px;height:625px;background:#FFFFFF;" version="1.1" viewBox="0 0 1200 625" width="1200px" zoomAndPan="magnify"><defs/><g><!--cluster ReactApp--><g id="cluster_ReactApp"><rect fill="#98FB98" height="134" rx="2.5" ry="2.5" style="stroke:#181818;stroke-width:1.0;" width="209" x="960" y="163"/><rect fill="#98FB98" height="10" style="stroke:#181818;stroke-width:1.0;" width="15" x="1149" y="168"/><rect fill="#98FB98" height="2" style="stroke:#181818;stroke-width:1.0;" width="4" x="1147" y="170"/><rect fill="#98FB98" height="2" style="stroke:#181818;stroke-width:1.0;" width="4" x="1147" y="174"/><text fill="#000000" font-family="sans-serif" font-size="14" font-weight="bold" lengthAdjust="spacing" textLength="83" x="1023" y="188.9951">React App</text></g><!--cluster SpringApp--><g id="cluster_SpringApp"><rect fill="#98FB98" height="134" rx="2.5" ry="2.5" style="stroke:#181818;stroke-width:1.0;" width="209" x="711" y="163"/><rect fill="#98FB98" height="10" style="stroke:#181818;stroke-width:1.0;" width="15" x="900" y="168"/><rect fill="#98FB98" height="2" style="stroke:#181818;stroke-width:1.0;" width="4" x="898" y="170"/><rect fill="#98FB98" height="2" style="stroke:#181818;stroke-width:1.0;" width="4" x="898" y="174"/><text fill="#000000" font-family="sans-serif" font-size="14" font-weight="bold" lengthAdjust="spacing" textLength="88" x="771.5" y="188.9951">Spring App</text></g><!--cluster MySQL--><g id="cluster_MySQL"><rect fill="#98FB98" height="134" rx="2.5" ry="2.5" style="stroke:#181818;stroke-width:1.0;" width="167" x="423" y="362"/><rect fill="#98FB98" height="10" style="stroke:#181818;stroke-width:1.0;" width="15" x="570" y="367"/><rect fill="#98FB98" height="2" style="stroke:#181818;stroke-width:1.0;" width="4" x="568" y="369"/><rect fill="#98FB98" height="2" style="stroke:#181818;stroke-width:1.0;" width="4" x="568" y="373"/><text fill="#000000" font-family="sans-serif" font-size="14" font-weight="bold" lengthAdjust="spacing" textLength="54" x="479.5" y="387.9951">MySQL</text></g><!--class HTTP3000--><g id="elem_HTTP3000"><rect codeLine="19" fill="#F1F1F1" height="48" id="HTTP3000" rx="2.5" ry="2.5" style="stroke:#181818;stroke-width:0.5;" width="141" x="1003.5" y="225"/><ellipse cx="1018.5" cy="241" fill="#B4A7E5" rx="11" ry="11" style="stroke:#181818;stroke-width:1.0;"/><path d="M1019.4531,237.7813 L1021.1719,237.7813 C1021.5625,237.7813 1021.75,237.75 1021.875,237.6719 C1022.1406,237.5156 1022.2813,237.2344 1022.2813,236.9375 C1022.2813,236.6719 1022.1719,236.4063 1021.9375,236.2344 C1021.7656,236.125 1021.625,236.0938 1021.1719,236.0938 L1016.0313,236.0938 C1015.5938,236.0938 1015.4688,236.1094 1015.3125,236.2031 C1015.0625,236.3594 1014.9063,236.6563 1014.9063,236.9375 C1014.9063,237.2188 1015.0469,237.4688 1015.2656,237.6406 C1015.4219,237.75 1015.6094,237.7813 1016.0313,237.7813 L1017.75,237.7813 L1017.75,244.2969 L1016.0313,244.2969 C1015.5938,244.2969 1015.4688,244.3125 1015.3125,244.4219 C1015.0625,244.5781 1014.9063,244.8594 1014.9063,245.1563 C1014.9063,245.4063 1015.0469,245.6719 1015.2656,245.8281 C1015.4219,245.9531 1015.625,246 1016.0313,246 L1021.1719,246 C1021.9219,246 1022.2813,245.7188 1022.2813,245.1563 C1022.2813,244.875 1022.1719,244.625 1021.9375,244.4531 C1021.7656,244.3281 1021.625,244.2969 1021.1719,244.2969 L1019.4531,244.2969 L1019.4531,237.7813 Z " fill="#000000"/><text fill="#000000" font-family="sans-serif" font-size="14" font-style="italic" lengthAdjust="spacing" textLength="109" x="1032.5" y="245.8467">HTTP Port 3000</text><line style="stroke:#181818;stroke-width:0.5;" x1="1004.5" x2="1143.5" y1="257" y2="257"/><line style="stroke:#181818;stroke-width:0.5;" x1="1004.5" x2="1143.5" y1="265" y2="265"/></g><!--class HTTP8080--><g id="elem_HTTP8080"><rect codeLine="28" fill="#F1F1F1" height="48" id="HTTP8080" rx="2.5" ry="2.5" style="stroke:#181818;stroke-width:0.5;" width="141" x="754.5" y="225"/><ellipse cx="769.5" cy="241" fill="#B4A7E5" rx="11" ry="11" style="stroke:#181818;stroke-width:1.0;"/><path d="M770.4531,237.7813 L772.1719,237.7813 C772.5625,237.7813 772.75,237.75 772.875,237.6719 C773.1406,237.5156 773.2813,237.2344 773.2813,236.9375 C773.2813,236.6719 773.1719,236.4063 772.9375,236.2344 C772.7656,236.125 772.625,236.0938 772.1719,236.0938 L767.0313,236.0938 C766.5938,236.0938 766.4688,236.1094 766.3125,236.2031 C766.0625,236.3594 765.9063,236.6563 765.9063,236.9375 C765.9063,237.2188 766.0469,237.4688 766.2656,237.6406 C766.4219,237.75 766.6094,237.7813 767.0313,237.7813 L768.75,237.7813 L768.75,244.2969 L767.0313,244.2969 C766.5938,244.2969 766.4688,244.3125 766.3125,244.4219 C766.0625,244.5781 765.9063,244.8594 765.9063,245.1563 C765.9063,245.4063 766.0469,245.6719 766.2656,245.8281 C766.4219,245.9531 766.625,246 767.0313,246 L772.1719,246 C772.9219,246 773.2813,245.7188 773.2813,245.1563 C773.2813,244.875 773.1719,244.625 772.9375,244.4531 C772.7656,244.3281 772.625,244.2969 772.1719,244.2969 L770.4531,244.2969 L770.4531,237.7813 Z " fill="#000000"/><text fill="#000000" font-family="sans-serif" font-size="14" font-style="italic" lengthAdjust="spacing" textLength="109" x="783.5" y="245.8467">HTTP Port 8080</text><line style="stroke:#181818;stroke-width:0.5;" x1="755.5" x2="894.5" y1="257" y2="257"/><line style="stroke:#181818;stroke-width:0.5;" x1="755.5" x2="894.5" y1="265" y2="265"/></g><!--class Port3306--><g id="elem_Port3306"><rect codeLine="40" fill="#F1F1F1" height="48" id="Port3306" rx="2.5" ry="2.5" style="stroke:#181818;stroke-width:0.5;" width="100" x="466" y="424"/><ellipse cx="481" cy="440" fill="#B4A7E5" rx="11" ry="11" style="stroke:#181818;stroke-width:1.0;"/><path d="M481.9531,436.7813 L483.6719,436.7813 C484.0625,436.7813 484.25,436.75 484.375,436.6719 C484.6406,436.5156 484.7813,436.2344 484.7813,435.9375 C484.7813,435.6719 484.6719,435.4063 484.4375,435.2344 C484.2656,435.125 484.125,435.0938 483.6719,435.0938 L478.5313,435.0938 C478.0938,435.0938 477.9688,435.1094 477.8125,435.2031 C477.5625,435.3594 477.4063,435.6563 477.4063,435.9375 C477.4063,436.2188 477.5469,436.4688 477.7656,436.6406 C477.9219,436.75 478.1094,436.7813 478.5313,436.7813 L480.25,436.7813 L480.25,443.2969 L478.5313,443.2969 C478.0938,443.2969 477.9688,443.3125 477.8125,443.4219 C477.5625,443.5781 477.4063,443.8594 477.4063,444.1563 C477.4063,444.4063 477.5469,444.6719 477.7656,444.8281 C477.9219,444.9531 478.125,445 478.5313,445 L483.6719,445 C484.4219,445 484.7813,444.7188 484.7813,444.1563 C484.7813,443.875 484.6719,443.625 484.4375,443.4531 C484.2656,443.3281 484.125,443.2969 483.6719,443.2969 L481.9531,443.2969 L481.9531,436.7813 Z " fill="#000000"/><text fill="#000000" font-family="sans-serif" font-size="14" font-style="italic" lengthAdjust="spacing" textLength="68" x="495" y="444.8467">Port 3306</text><line style="stroke:#181818;stroke-width:0.5;" x1="467" x2="565" y1="456" y2="456"/><line style="stroke:#181818;stroke-width:0.5;" x1="467" x2="565" y1="464" y2="464"/></g><!--entity PythonApp--><g id="elem_PythonApp"><rect fill="#98FB98" height="46.2969" rx="2.5" ry="2.5" style="stroke:#181818;stroke-width:0.5;" width="125" x="166.5" y="425"/><rect fill="#98FB98" height="10" style="stroke:#181818;stroke-width:0.5;" width="15" x="271.5" y="430"/><rect fill="#98FB98" height="2" style="stroke:#181818;stroke-width:0.5;" width="4" x="269.5" y="432"/><rect fill="#98FB98" height="2" style="stroke:#181818;stroke-width:0.5;" width="4" x="269.5" y="436"/><text fill="#000000" font-family="sans-serif" font-size="14" lengthAdjust="spacing" textLength="85" x="181.5" y="457.9951">Python App</text></g><!--entity VolumeMariadb--><g id="elem_VolumeMariadb"><rect fill="#FFD700" height="52.5938" rx="2.5" ry="2.5" style="stroke:#181818;stroke-width:0.5;" width="181" x="290.5" y="567"/><text fill="#000000" font-family="sans-serif" font-size="14" font-style="italic" lengthAdjust="spacing" textLength="71" x="345.5" y="589.9951">&#171;volume&#187;</text><text fill="#000000" font-family="sans-serif" font-size="14" lengthAdjust="spacing" textLength="161" x="300.5" y="606.292">Volume: mariadb_data</text></g><!--entity BackendNetwork--><g id="elem_BackendNetwork"><rect fill="#87CEFA" height="52.5938" rx="2.5" ry="2.5" style="stroke:#181818;stroke-width:0.5;" width="147" x="271.5" y="222.5"/><text fill="#000000" font-family="sans-serif" font-size="14" font-style="italic" lengthAdjust="spacing" textLength="75" x="307.5" y="245.4951">&#171;network&#187;</text><text fill="#000000" font-family="sans-serif" font-size="14" lengthAdjust="spacing" textLength="127" x="281.5" y="261.792">Backend Network</text></g><!--entity FrontendNetwork--><g id="elem_FrontendNetwork"><rect fill="#87CEFA" height="52.5938" rx="2.5" ry="2.5" style="stroke:#181818;stroke-width:0.5;" width="151" x="720.5" y="22.5"/><text fill="#000000" font-family="sans-serif" font-size="14" font-style="italic" lengthAdjust="spacing" textLength="75" x="758.5" y="45.4951">&#171;network&#187;</text><text fill="#000000" font-family="sans-serif" font-size="14" lengthAdjust="spacing" textLength="131" x="730.5" y="61.792">Frontend Network</text></g><g id="elem_GMN4"><path d="M907,29 L907,69.2656 L1193,69.2656 L1193,39 L1183,29 L907,29 " fill="#F5DEB3" style="stroke:#181818;stroke-width:0.5;"/><path d="M1183,29 L1183,39 L1193,39 L1183,29 " fill="#F5DEB3" style="stroke:#181818;stroke-width:1.0;"/><text fill="#000000" font-family="sans-serif" font-size="13" lengthAdjust="spacing" textLength="143" x="913" y="46.0669">Environment Variable:</text><text fill="#000000" font-family="sans-serif" font-size="13" lengthAdjust="spacing" textLength="265" x="913" y="61.1997">BACKEND_PROXY: http://spring-app:8080</text></g><g id="elem_GMN9"><path d="M409,6 L409,91.6641 L685,91.6641 L685,16 L675,6 L409,6 " fill="#F5DEB3" style="stroke:#181818;stroke-width:0.5;"/><path d="M675,6 L675,16 L685,16 L675,6 " fill="#F5DEB3" style="stroke:#181818;stroke-width:1.0;"/><text fill="#000000" font-family="sans-serif" font-size="13" lengthAdjust="spacing" textLength="150" x="415" y="23.0669">Environment Variables:</text><text fill="#000000" font-family="sans-serif" font-size="13" lengthAdjust="spacing" textLength="255" x="415" y="38.1997">DB_ADDRESS: jdbc:mysql://mysql:3306</text><text fill="#000000" font-family="sans-serif" font-size="13" lengthAdjust="spacing" textLength="184" x="415" y="53.3325">DB_DATABASE: template_db</text><text fill="#000000" font-family="sans-serif" font-size="13" lengthAdjust="spacing" textLength="94" x="415" y="68.4653">DB_USER: root</text><text fill="#000000" font-family="sans-serif" font-size="13" lengthAdjust="spacing" textLength="136" x="415" y="83.5981">DB_PASSWORD: pwd</text></g><g id="elem_GMN14"><path d="M454,221.5 L454,276.8984 L684,276.8984 L684,231.5 L674,221.5 L454,221.5 " fill="#F5DEB3" style="stroke:#181818;stroke-width:0.5;"/><path d="M674,221.5 L674,231.5 L684,231.5 L674,221.5 " fill="#F5DEB3" style="stroke:#181818;stroke-width:1.0;"/><text fill="#000000" font-family="sans-serif" font-size="13" lengthAdjust="spacing" textLength="150" x="460" y="238.5669">Environment Variables:</text><text fill="#000000" font-family="sans-serif" font-size="13" lengthAdjust="spacing" textLength="205" x="460" y="253.6997">MYSQL_ROOT_PASSWORD: pwd</text><text fill="#000000" font-family="sans-serif" font-size="13" lengthAdjust="spacing" textLength="209" x="460" y="268.8325">MYSQL_DATABASE: template_db</text></g><g id="elem_GMN18"><path d="M6,221.5 L6,276.8984 A0,0 0 0 0 6,276.8984 L131.565,276.8984 L216.828,424.798 L139.565,276.8984 L236,276.8984 A0,0 0 0 0 236,276.8984 L236,231.5 L226,221.5 L6,221.5 A0,0 0 0 0 6,221.5 " fill="#F5DEB3" style="stroke:#181818;stroke-width:0.5;"/><path d="M226,221.5 L226,231.5 L236,231.5 L226,221.5 " fill="#F5DEB3" style="stroke:#181818;stroke-width:0.5;"/><text fill="#000000" font-family="sans-serif" font-size="13" lengthAdjust="spacing" textLength="150" x="12" y="238.5669">Environment Variables:</text><text fill="#000000" font-family="sans-serif" font-size="13" lengthAdjust="spacing" textLength="205" x="12" y="253.6997">MYSQL_ROOT_PASSWORD: pwd</text><text fill="#000000" font-family="sans-serif" font-size="13" lengthAdjust="spacing" textLength="209" x="12" y="268.8325">MYSQL_DATABASE: template_db</text></g><!--link GMN4 to ReactApp--><g id="link_GMN4_ReactApp"><path d="M1034.28,69.169 C1019.76,87.882 998.722,117.734 987,147 C984.9434,152.1345 983.1062,157.5065 981.4656,162.9832 " fill="none" id="GMN4-ReactApp" style="stroke:#2E8B57;stroke-width:1.0;stroke-dasharray:7.0,7.0;"/></g><!--link GMN9 to SpringApp--><g id="link_GMN9_SpringApp"><path d="M642.417,92.245 C665.141,106.551 687.094,124.698 702,147 C705.1125,151.6568 707.7164,156.6967 709.8898,161.955 C710.1615,162.6123 710.4264,163.273 710.6848,163.9368 C710.7494,164.1028 710.8136,164.2689 710.8773,164.4353 " fill="none" id="GMN9-SpringApp" style="stroke:#2E8B57;stroke-width:1.0;stroke-dasharray:7.0,7.0;"/></g><!--link GMN14 to MySQL--><g id="link_GMN14_MySQL"><path d="M521.983,276.523 C496.724,293.215 467.302,317.067 450,346 C447.1154,350.8236 444.653,355.9894 442.5526,361.34 C442.4869,361.5072 442.4216,361.6746 442.3567,361.8422 " fill="none" id="GMN14-MySQL" style="stroke:#2E8B57;stroke-width:1.0;stroke-dasharray:7.0,7.0;"/></g><!--reverse link FrontendNetwork to ReactApp--><g id="link_FrontendNetwork_ReactApp"><path codeLine="72" d="M838.1424,79.1781 C862.5454,97.1901 889.182,119.37 912,147 C928.0865,166.4785 941.9038,191.25 951.7886,211.3855 C954.2598,216.4194 956.4853,221.1635 958.439,225.4627 C958.9274,226.5375 959.3988,227.5845 959.8529,228.6013 " fill="none" id="FrontendNetwork-backto-ReactApp" style="stroke:#2E8B57;stroke-width:1.0;"/><polygon fill="#2E8B57" points="833.315,75.615,838.1807,84.178,837.3378,78.5843,842.9316,77.7414,833.315,75.615" style="stroke:#2E8B57;stroke-width:1.0;"/><text fill="#000000" font-family="sans-serif" font-size="13" lengthAdjust="spacing" textLength="31" x="904" y="135.0669">Uses</text></g><!--reverse link FrontendNetwork to SpringApp--><g id="link_FrontendNetwork_SpringApp"><path codeLine="73" d="M773.6758,80.8291 C760.7828,99.6641 747.739,121.315 738,147 C737.0195,149.5859 736.0881,152.2289 735.2034,154.9126 C734.761,156.2545 734.3304,157.6065 733.9111,158.9667 C733.7015,159.6468 733.4947,160.3289 733.2907,161.0128 C733.1887,161.3548 733.0874,161.6971 732.9868,162.0399 C732.9365,162.2114 732.8864,162.3829 732.8365,162.5545 " fill="none" id="FrontendNetwork-backto-SpringApp" style="stroke:#2E8B57;stroke-width:1.0;"/><polygon fill="#2E8B57" points="777.065,75.878,768.6805,81.0452,774.2407,80.0039,775.282,85.5641,777.065,75.878" style="stroke:#2E8B57;stroke-width:1.0;"/><text fill="#000000" font-family="sans-serif" font-size="13" lengthAdjust="spacing" textLength="31" x="749" y="135.0669">Uses</text></g><!--reverse link BackendNetwork to SpringApp--><g id="link_BackendNetwork_SpringApp"><path codeLine="74" d="M363.3184,217.056 C378.7944,192.568 402.146,163.066 436,148 C490.005,123.966 656.866,109.828 702,148 C706.1409,151.5021 709.5364,155.6034 712.3053,160.1114 C712.6514,160.6749 712.9877,161.2447 713.3145,161.8205 C713.4779,162.1085 713.6389,162.3979 713.7975,162.6887 " fill="none" id="BackendNetwork-backto-SpringApp" style="stroke:#2E8B57;stroke-width:1.0;"/><polygon fill="#2E8B57" points="360.113,222.128,368.3025,216.6569,362.7842,217.9013,361.5398,212.383,360.113,222.128" style="stroke:#2E8B57;stroke-width:1.0;"/><text fill="#000000" font-family="sans-serif" font-size="13" lengthAdjust="spacing" textLength="31" x="468.5" y="135.0669">Uses</text></g><!--link SpringApp to BackendNetwork--><!--reverse link BackendNetwork to MySQL--><g id="link_BackendNetwork_MySQL"><path codeLine="75" d="M358.6435,281.2529 C370.117,307.5354 386.0055,343.9313 401.6216,379.703 C409.4297,397.5889 416.5695,413.944 421.8551,426.0515 C422.1855,426.8082 422.5086,427.5483 422.8241,428.2712 " fill="none" id="BackendNetwork-backto-MySQL" style="stroke:#2E8B57;stroke-width:1.0;"/><polygon fill="#2E8B57" points="356.243,275.754,356.1778,285.6026,358.2434,280.3364,363.5097,282.402,356.243,275.754" style="stroke:#2E8B57;stroke-width:1.0;"/><text fill="#000000" font-family="sans-serif" font-size="13" lengthAdjust="spacing" textLength="31" x="384" y="334.0669">Uses</text></g><!--link BackendNetwork to MySQL--><!--reverse link BackendNetwork to PythonApp--><g id="link_BackendNetwork_PythonApp"><path codeLine="76" d="M303.6321,278.9662 C286.8411,290.5852 271.507,300.979 253,313 C247.311,316.695 243.564,315.227 240,321 C220.39,352.763 221.974,397.904 225.251,424.649 " fill="none" id="BackendNetwork-backto-PythonApp" style="stroke:#2E8B57;stroke-width:1.0;"/><polygon fill="#2E8B57" points="308.566,275.552,298.889,277.384,304.4544,278.3971,303.4412,283.9625,308.566,275.552" style="stroke:#2E8B57;stroke-width:1.0;"/><text fill="#000000" font-family="sans-serif" font-size="13" lengthAdjust="spacing" textLength="31" x="241" y="334.0669">Uses</text></g><!--link BackendNetwork to PythonApp--><!--reverse link MySQL to VolumeMariadb--><g id="link_MySQL_VolumeMariadb"><path codeLine="77" d="M420.8796,478.0461 C420.448,479.2848 421.6573,475.8144 421.2029,477.1182 C419.3857,482.3338 417.3956,488.0452 415.3043,494.0474 C406.9388,518.0562 396.952,546.7177 389.917,566.9071 " fill="none" id="MySQL-backto-VolumeMariadb" style="stroke:#2E8B57;stroke-width:1.0;"/><polygon fill="#2E8B57" points="422.8538,472.3802,416.1153,479.5629,421.2087,477.1018,423.6698,482.1952,422.8538,472.3802" style="stroke:#2E8B57;stroke-width:1.0;"/><text fill="#000000" font-family="sans-serif" font-size="13" lengthAdjust="spacing" textLength="46" x="407" y="533.0669">Mounts</text></g><!--link ReactApp to SpringApp--><!--link BackendNetwork to VolumeMariadb--><!--SRC=[lLHTRzem57tFhx1usHDgDAIfiYgaG5Wd3KgMq7RLD26Jk92Hs9xZ54NL_llyGH87cgAzZ1VmlUSUdtFDlSK-9Gnnb8EOvemIJ4GagWo3Ciy-EiLv5hmwG7ucADvlEIr9CgKPvI106Rxb61ETzJYd1vE8C3BnFnOReGBt43tkC18TS4e4viyexgkOfzkTc6GbxbHn70j4jbbFrSqDmU90-NuyDWJHlj8SRs9VQ5RcM49lQPR8QvmFu3EdKXT9mBJkJE6qJHg46CK2U8mD02g0Fid3KKlhQF1bjGf0GBa08zTrDLY5r47Ue_iaA0FqkU7G33Foaae1kRhh0V4KRJ8CZNPl-dLsvw-3SFdz2OAT40nUNHMCfsGxH8p1Q_VQTPHmHQwSABVzHY9TsJWnnmjMr1MD5NrVrqf3qkkbC6RyoThp_N0MHH3yIZOnpAlYToRzcE_HoFrKutnlvKsyQ0Q1m3dBaC3hP5CdxwDP206dLDIHm8kYnsNeGy0EIQSTFX9eWmhSquz55NsRQtFwrtaRp6DAPHgaJbfcjmEczfBznPD4hSFbSdMYjqs-RTls4rHYHubwmDQHRQZD6y7wQ1xuH7IR-Y_27_JGMQBRaHwO70IvkZVPh1FvQ5g-IInC65YJgzr8rZipzeNDLa_0CQU9Zh5Z2DZxGbDPvSqgiElhO2-1r3AbX4YQb9B2QLR4i6J3yLav1FS5Bfns_Fu9TcBcY39_mlSGxOk_X-hst20DDmGBkKNb02ctSrJHKW34kUmRLdyRo_IFNPeacFpaQXSFhGrXMJd1TCKu9zeQT48FP6ZqNC0qRY_WEdx_0W00]--></g></svg>